<mxfile host="" modified="2020-05-30T08:33:13.077Z" agent="5.0 (Macintosh; Intel Mac OS X 10_15_4) AppleWebKit/537.36 (KHTML, like Gecko) Code/1.45.1 Chrome/78.0.3904.130 Electron/7.2.4 Safari/537.36" etag="vwNx6D_-oGrTsvy8e0t_" version="13.1.3">
    <diagram id="AZN4mt--jy0nBWxoQV5O" name="Page-1">
        <mxGraphModel dx="636" dy="635" grid="1" gridSize="10" guides="1" tooltips="1" connect="1" arrows="1" fold="1" page="1" pageScale="1" pageWidth="827" pageHeight="1169" math="0" shadow="0">
            <root>
                <mxCell id="0"/>
                <mxCell id="1" parent="0"/>
                <mxCell id="SpL9ILpTJnfa2vEchgF8-2" value="作業用マシン" style="rounded=0;whiteSpace=wrap;html=1;fillColor=#d5e8d4;strokeColor=#82b366;align=left;verticalAlign=top;spacing=10;" parent="1" vertex="1">
                    <mxGeometry x="120" y="490" width="160" height="70" as="geometry"/>
                </mxCell>
                <mxCell id="SpL9ILpTJnfa2vEchgF8-6" value="動作確認用マシン" style="rounded=0;whiteSpace=wrap;html=1;align=left;verticalAlign=top;spacing=10;fillColor=#fff2cc;strokeColor=#d6b656;" parent="1" vertex="1">
                    <mxGeometry x="350" y="490" width="160" height="70" as="geometry"/>
                </mxCell>
                <mxCell id="SpL9ILpTJnfa2vEchgF8-11" value="コンピュート用マシン" style="rounded=0;whiteSpace=wrap;html=1;align=left;fillColor=#dae8fc;strokeColor=#6c8ebf;verticalAlign=top;spacing=10;" parent="1" vertex="1">
                    <mxGeometry x="170" y="310" width="220" height="140" as="geometry"/>
                </mxCell>
                <mxCell id="SpL9ILpTJnfa2vEchgF8-3" value="microk8s&lt;br&gt;on VirtualBox's Ubuntu 20.04" style="rounded=0;whiteSpace=wrap;html=1;fillColor=#f8cecc;strokeColor=#b85450;" parent="1" vertex="1">
                    <mxGeometry x="250" y="350" width="120" height="70" as="geometry"/>
                </mxCell>
                <mxCell id="SpL9ILpTJnfa2vEchgF8-4" value="Bridge" style="ellipse;whiteSpace=wrap;html=1;align=center;fillColor=#f8cecc;strokeColor=#b85450;" parent="1" vertex="1">
                    <mxGeometry x="280" y="410" width="60" height="30" as="geometry"/>
                </mxCell>
                <mxCell id="SpL9ILpTJnfa2vEchgF8-13" value="" style="curved=1;endArrow=classic;html=1;exitX=0.5;exitY=0;exitDx=0;exitDy=0;entryX=0;entryY=0.5;entryDx=0;entryDy=0;" parent="1" source="SpL9ILpTJnfa2vEchgF8-2" target="SpL9ILpTJnfa2vEchgF8-4" edge="1">
                    <mxGeometry width="50" height="50" relative="1" as="geometry">
                        <mxPoint x="160" y="480" as="sourcePoint"/>
                        <mxPoint x="210" y="430" as="targetPoint"/>
                        <Array as="points">
                            <mxPoint x="200" y="470"/>
                            <mxPoint x="220" y="436"/>
                        </Array>
                    </mxGeometry>
                </mxCell>
                <mxCell id="SpL9ILpTJnfa2vEchgF8-14" value="" style="curved=1;endArrow=classic;html=1;exitX=0.5;exitY=0;exitDx=0;exitDy=0;entryX=1;entryY=0.5;entryDx=0;entryDy=0;" parent="1" source="SpL9ILpTJnfa2vEchgF8-6" target="SpL9ILpTJnfa2vEchgF8-4" edge="1">
                    <mxGeometry width="50" height="50" relative="1" as="geometry">
                        <mxPoint x="160" y="480" as="sourcePoint"/>
                        <mxPoint x="210" y="430" as="targetPoint"/>
                        <Array as="points">
                            <mxPoint x="430" y="460"/>
                            <mxPoint x="390" y="436"/>
                        </Array>
                    </mxGeometry>
                </mxCell>
                <mxCell id="SpL9ILpTJnfa2vEchgF8-15" value="kubectl / docker" style="text;html=1;strokeColor=#666666;fillColor=#f5f5f5;align=center;verticalAlign=middle;whiteSpace=wrap;rounded=0;fontColor=#333333;" parent="1" vertex="1">
                    <mxGeometry x="160" y="460" width="100" height="20" as="geometry"/>
                </mxCell>
                <mxCell id="SpL9ILpTJnfa2vEchgF8-16" value="http" style="text;html=1;strokeColor=#666666;fillColor=#f5f5f5;align=center;verticalAlign=middle;whiteSpace=wrap;rounded=0;fontColor=#333333;" parent="1" vertex="1">
                    <mxGeometry x="370" y="460" width="100" height="20" as="geometry"/>
                </mxCell>
            </root>
        </mxGraphModel>
    </diagram>
</mxfile>